<svg xmlns="http://www.w3.org/2000/svg" viewBox="0 0 4680 3120"><defs><linearGradient id="b" x1="4136.46" x2="3821.45" y1="845.56" y2="845.56" gradientTransform="rotate(4.57 -5103.18 -1760.177)" gradientUnits="userSpaceOnUse"><stop offset="0" stop-color="#fff"/><stop offset="0" stop-color="#666"/><stop offset=".72"/></linearGradient><filter id="a" width="321.16" height="126.24" x="3583.12" y="1494.16" color-interpolation-filters="sRGB" filterUnits="userSpaceOnUse"><feFlood flood-color="#fff" result="bg"/><feBlend in="SourceGraphic" in2="bg"/></filter><mask id="c" width="321.16" height="126.24" x="3583.12" y="1494.16" maskUnits="userSpaceOnUse"><g filter="url(#a)" mask="url(#b)"><path d="M3904.28,1517.3l-288.08-23c-14.33-1.15-26.82,8.86-27.9,22.36l-5.11,63.78c-1.08,13.5,9.66,25.38,24,26.52l168.46,13.49Z" style="mix-blend-mode:multiply" fill="url(#b)"/></g></mask></defs><g data-name="7"><rect width="4680" height="3120" fill="#fff" data-name="7" opacity="0"/><rect width="862.63" height="861.02" x="2386.28" y="1280.58" fill="#f19a6d"/><rect width="862.63" height="61.23" x="2386.28" y="2080.37" fill="#afafaf" opacity=".15"/><polygon fill="#afafaf" points="3248.91 2141.6 3462.23 1921.1 3462.23 1060.09 3248.91 1280.58 3248.91 2141.6"/><polygon fill="#ef7c59" points="3248.91 2141.6 3462.23 1921.1 3462.23 1060.09 3248.91 1280.58 3248.91 2141.6"/><polygon fill="#f3ce90" points="2597.6 1060.09 2542.57 1119.04 2386.29 1280.59 3248.92 1280.59 3462.24 1060.09 3305.96 1060.09 2597.6 1060.09"/><polygon fill="#ef7c59" points="2963.42 1060.09 2756.27 1280.59 2756.27 1454.13 2878.79 1454.13 2878.79 1280.59 2878.94 1280.59 3086.09 1060.09 2963.42 1060.09"/><rect width="634.28" height="12.96" x="2500.46" y="1964.63" fill="#ef7c59"/><rect width="634.28" height="12.96" x="2500.46" y="2003.25" fill="#ef7c59"/><rect width="634.28" height="12.96" x="2500.46" y="2041.87" fill="#afafaf" opacity=".4"/><rect width="637.74" height="636.55" x="2631.72" y="563.31" fill="#f19a6d"/><rect width="637.74" height="43.58" x="2631.72" y="1156.27" fill="#ef7c59" opacity=".5"/><polygon fill="#afafaf" points="3269.47 1199.86 3427.18 1036.85 3427.18 400.3 3269.47 563.31 3269.47 1199.86"/><polygon fill="#ef7c59" points="3269.47 1199.86 3427.18 1036.85 3427.18 400.3 3269.47 563.31 3269.47 1199.86"/><polygon fill="#f3ce90" points="3269.47 563.31 3427.18 400.3 2789.43 400.3 2631.72 563.31 3269.47 563.31"/><polygon fill="#f19a6d" points="3339.43 493.43 2691.57 493.43 2736.04 455.48 3373.79 455.48 3339.43 493.43"/><polygon fill="#ef7c59" points="3062.96 400.3 2905.26 563.31 2905.26 691.61 2995.83 691.61 2995.83 563.31 2995.94 563.31 3153.65 400.3 3062.96 400.3"/><polygon fill="#f3ce90" points="2818.11 1033.02 2905.31 916.68 2852.39 916.68 2852.39 730.31 2783.83 730.31 2783.83 916.68 2730.92 916.68 2818.11 1033.02"/><polygon fill="#f3ce90" points="3170.28 916.68 3117.36 916.68 3117.36 730.31 3048.8 730.31 3048.8 916.68 2995.88 916.68 3083.08 1033.02 3170.28 916.68"/><rect width="468.92" height="9.58" x="2716.14" y="1069.02" fill="#f3ce90"/><rect width="468.92" height="9.58" x="2716.14" y="1097.58" fill="#f3ce90"/><rect width="468.92" height="9.58" x="2716.14" y="1126.13" fill="#f3ce90"/><path fill="#2e6857" d="M3459.35,739.35a99.51,99.51,0,0,1,13.44-16.06c41.92-40.21,96-18.8,138.68,8.41,95.5,60.87,198.93,159.53,239.35,296.65,44.45,150.81,54,323.81,63.55,488.42,1.32,22.73,8.71,69.91,3.1,101.62-16.2-3.64-32.55-6.89-49.1-8.27-7.38-20.66-13.23-44.14-17.49-56.54-49.73-145-117.84-277.73-206.71-380.66-78.82-91.28-176.74-141.14-207.26-291.66C3427.45,834.59,3434.09,776.65,3459.35,739.35Z"/><path fill="#6fc183" d="M3953.86,1622.87l-18.31-2.77c.08-.35.12-.73.21-1.08,2-8,4.89-15.54,7.13-24.23,4-15.51,8-30.76,13.11-46,11.06-33.13,23.9-65.27,36.15-97.72,19.6-51.88,40.75-103.24,67.8-149.35,27.56-47,62-88.48,102.28-110.79,96.71-53.59,247.31,8.68,268.87,150.73,7.12,46.85-4.36,103.16-34,134.63-14.24,15.11-31.49,23.61-48.68,27.9a111.12,111.12,0,0,1-68.78-4.43c-53.08-21.27-113.12-53.78-173-41.59a96.88,96.88,0,0,0-18,5.58c-31.91,13.31-59.66,42.85-84.15,74.25C3984.49,1563.68,3964.84,1589.58,3953.86,1622.87Z"/><path fill="#40947e" d="M4023.27,1312.74c-17.18,49.2-31.52,99.94-45.07,150.83-6.72,25.23-38,114-43.52,158.66l-1.93-.3-15.28-3.54c-10.08-43,.78-88.45,1.24-135.29,1.79-181.83-12.16-383.59,46.42-559.48,33.86-101.69,89.68-196.08,163.35-245.39s165.83-45.25,220,26c10.3,13.54,19.27,29.56,23.34,48.69,10.08,47.3-11.63,100.59-37.48,140.4-22.1,34.05-47.93,63.71-76.16,87.44-29.5,24.81-61.51,43.14-90.24,69.75-34,31.45-61.6,72.58-85,118.06S4040.32,1263.89,4023.27,1312.74Z"/><path fill="#275647" d="M3890.6,1606.09q-4.17-20.94-8.35-42.11c-21.22-107.41-43.17-218.48-74.91-321.12-35.83-115.85-79.5-204.45-133.52-270.86-35.6-43.78-74.91-82.2-112.91-119.35l4-4.1c38.13,37.27,77.55,75.8,113.36,119.84,54.48,67,98.49,156.21,134.54,272.78,31.83,102.92,53.81,214.14,75.07,321.7q4.17,21.15,8.34,42.1Z"/><path fill="#275647" d="M3947.27,1619l-5.16-2.51c59.35-122.08,112-218.76,203.18-260.31,61.2-26.72,121-9.38,169,4.55l-1.6,5.5c-47.13-13.67-105.79-30.69-165-4.81C4058.21,1402.12,4006.1,1497.94,3947.27,1619Z"/><path fill="#275647" d="M3928.61,1611.06l-5.65-.93c7.29-44.66,13.42-90.08,19.92-138.16,15.17-112.38,30.87-228.59,62.16-333.1,35.48-118.48,86.64-204.84,156.39-264l3.71,4.37c-68.88,58.43-119.46,143.9-154.61,261.28-31.16,104.09-46.83,220.07-62,332.23C3942.06,1520.86,3935.92,1566.31,3928.61,1611.06Z"/><path fill="#2e6857" d="M1195.7,1024.18a106.65,106.65,0,0,0-18.51-13c-55-30.24-105.47,7.23-142.41,47.57-82.66,90.24-163,222.16-166.87,376.6-4.22,169.85,34.15,353.12,70.27,527.61,5,24.09,10.47,75.41,25.19,106.94,15.89-8.33,32-16.3,48.94-22.36,1.92-23.63,1.47-49.78,2.44-63.92,11.36-165.26,45.33-322.87,109.31-455.16,56.74-117.33,145-196.77,134.76-362.42C1255.64,1114.67,1232.51,1056,1195.7,1024.18Z"/><path fill="#6fc183" d="M926.64,2084.74l18.34-8c-.19-.35-.34-.73-.53-1.07-4.34-7.77-9.44-14.85-14.21-23.29-8.51-15.08-17-29.86-26.54-44.31-20.81-31.5-43.2-61.45-65.07-91.9-35-48.67-71.41-96.36-112.55-136.94-41.9-41.33-89.47-75-137.75-87-115.94-28.87-255.72,78.24-238.5,232.55,5.68,50.9,33.41,106.47,73.18,131,19.09,11.78,39.48,15.83,58.62,15.51a120.15,120.15,0,0,0,70.56-23.86c49.45-37.06,103-87.79,169-91.82a105.2,105.2,0,0,1,20.3.8c37,5,74.27,28,108.62,54C878.11,2031.52,905.87,2053.06,926.64,2084.74Z"/><path fill="#40947e" d="M767.44,1780.43c31.7,46.55,60.86,95.51,89.24,144.84,14.07,24.46,71.57,108.33,89.8,153.44l1.93-.85,15-8c-1.51-47.72-25.55-92.1-39.14-140.87-52.72-189.31-94.59-403.82-204.93-571-63.79-96.68-148.46-179.59-239.15-210.46s-185.76-.85-222.4,88.64c-7,17-11.84,36.24-10.74,57.35,2.71,52.19,40.28,101.75,78.39,136.08,32.59,29.36,67.85,53.09,104,70,37.73,17.64,76.28,27.82,113.7,47.56,44.25,23.33,84.61,58.53,121.77,99.46S736,1734.21,767.44,1780.43Z"/><path fill="#275647" d="M982,2049.92q-1.5-23-3.07-46.28c-7.89-118.21-16.06-240.45-11.62-356.77,5-131.73,26-237.16,64.12-322.29,25.06-56,55.43-107.21,84.8-156.78l4.93,2.93c-29.29,49.42-59.57,100.53-84.5,156.19-37.82,84.45-58.63,189.18-63.62,320.17-4.43,116,3.73,238.11,11.61,356.17q1.56,23.25,3.07,46.29Z"/><path fill="#275647" d="M932.61,2078.68c-95.3-109.92-176.53-195.39-281.38-212.92-69.13-10.44-125.64,23.75-171,51.22l-3-4.9c46.2-27.95,103.69-62.74,174.91-52,50,8.36,97,31.84,148,73.91,47.67,39.35,93.75,91.19,136.86,140.91Z"/><path fill="#275647" d="M949.9,2065.25c-20.14-44.65-39.26-90.38-59.5-138.8-47.19-112.85-96-229.54-157.64-329.48-33.25-53.91-67.09-98-103.44-134.78-40.93-41.43-83.83-72.44-131.12-94.8l2.45-5.18c47.91,22.65,91.33,54,132.75,96,36.66,37.1,70.75,81.52,104.24,135.8,61.89,100.33,110.77,217.23,158,330.28,20.23,48.38,39.34,94.07,59.44,138.66Z"/><path fill="#141414" d="M1195.54,2155.9s-30.5,213.51-18.77,218.21,752.55,0,752.55,0L1904.7,2155.9Z"/><path fill="#f5b0a6" d="M2752.33,1485.9c-17.84,5.33-109.09,6.24-109.09,6.24s80.12,5.85,86.35,8.16,12.85,5.88-7.41,21.7c-18.32,14.21-85.69,10.78-100.53,9.56,11.76,1.45,57.22,7.25,67.07,10.83,11.69,4.12-7.5,25.8-24.9,30.31s-120.08,6.72-120.08,6.72-27.44,17.23-39,20.67a70.41,70.41,0,0,1-13.85,2.28,144.37,144.37,0,0,1-15.21.17l-34.22,27.69c-12.78-8-26.54-19.84-39.77-37.34-14.22-18.86-21.33-35.09-24.45-48.34l31.74-28.28L2413,1513c20.19-16.53,111.83-91.35,133.25-106.39,24.1-16.91,105.82,5.83,166.44,4.41s79.06,0,75.63,16.27c-3,13.74-89.89,25.82-118,28.39,21.16-.14,74.2,1.14,89.31,1C2778.9,1456.42,2770.17,1480.57,2752.33,1485.9Z"/><path fill="#f18a8b" d="M2604.52,1401.89s-67.13,45.44-68.74,83.94c-1.11,26.58-17.08,37-26.86,41a19,19,0,0,0-7.51,2.21c-18.68,10.08-49.36,7.56-49.36,7.56l-3-53c35-28.44,82.46-66.66,97.11-76.93C2556.77,1399.22,2578.42,1399.44,2604.52,1401.89Z"/><path fill="#f5b0a6" d="M2476.43,1525.27c-29,20.74-60.77,15.19-75-9.26s54.13-118.59,69.44-128.61,69.2,3.08,89.55,4.92,12,27.08-8.81,31.82c-10.08,2.29-21,4.84-29.61,6.86a21.13,21.13,0,0,0-16.3,19C2504.1,1471.45,2498.17,1509.75,2476.43,1525.27Z"/><path fill="#f18a8b" d="M2418.78,1590.35A32.54,32.54,0,0,1,2425,1557c12.68-13.81,30.3-37.43,27.85-59.91-5.94-54.61,18-109.68,18-109.69h0l-2.57,2c-19.11,16.87-80.41,103.28-66.86,126.56a46.93,46.93,0,0,0,2.92,4.42l-27.08,24.12c3.12,13.25,10.23,29.48,24.45,48.34,13.23,17.5,27,29.38,39.77,37.34h0C2430.28,1617.05,2423.15,1602.14,2418.78,1590.35Z"/><path fill="#6fc183" d="M2472.89,1578.65c-13.92-67.9-37.27-177.16-43.36-177.29-5.69-.12-197.78,89.37-332.48,152.46-45.37-91.42-87.58-177.91-114.81-245.53-36.85-91.53-95.08-172.54-188-205.76-40.19-14.37-83-27.54-121.18-34.74-163.08-2.68-195.16-30.3-195.16-30.3-39.14,18.38-125.86,48.78-202.08,74.36-86.11,28.9-150.07,137-187.39,219.8-83.08,184.4-158,462.5-149.69,545.79,12.79,127.52,65,173.44,132.37,201.74,6.07,2.55,13.95,3.6,22.82,3.6,29.24,0,69.15-11.39,89.89-17.8l-9,139.74,691-.14h67.5l-6.77-327,.09.06c2.51,1.71,58.32,38.28,117.49,7.42,109.36-57,439.29-253.61,439.29-253.61S2479.16,1609.25,2472.89,1578.65Z"/><polygon fill="#40947e" points="1167.1 1712.33 1263.25 1443.68 1254.14 1619.84 1469.57 1567.15 1167.1 1712.33" opacity=".5"/><path fill="#40947e" d="M1673.46,2204.72s-325.93-82.15-284.1-177.82c36.7-83.94,88.53-178.3,153.79-236.68L1183.85,2065l-9,139.74Z" opacity=".5"/><path fill="#40947e" d="M2483.53,1631.45s-329.93,196.6-439.29,253.61c-59.17,30.86-115-5.71-117.49-7.42l-.09-.06-22-406.53s30.39,248.89,111.88,276.51c69.44,23.54,366.59-125.69,456.31-168.91C2479.16,1609.25,2483.53,1631.45,2483.53,1631.45Z" opacity=".5"/><path fill="#f5b0a6" d="M1693.17,1484.56c-8.36,8.52-9.51,22-2.17,31.39a25.24,25.24,0,0,1,4.54,9.85c4.7,20-7,38.73-7,38.73s25.82,15.25,5.87,50.46c0,0,14.08,19.94,0,46.94,0,0-65.72,51.64-77.46,61-4.25,3.4-22.34,9.25-43.68,15.35-37.63,10.74-85.4,22.2-85.4,22.2l-70.42-124.39,48.12-36.38s26.13-50.26,46.18-87.3c10.58-19.56,19.46-35.42,21.89-38.27,7-8.22,84.49-4.69,84.49-4.69s122.61-82.15,134.34-86.84,18.79,3.52,16.44,16.43C1767.25,1407.93,1721.57,1455.61,1693.17,1484.56Z"/><path fill="#f18a8b" d="M1573.23,1738.3c-37.63,10.74-85.4,22.2-85.4,22.2l-70.42-124.39,48.12-36.38s26.13-50.26,46.18-87.3C1531,1542.83,1582.85,1637,1573.23,1738.3Z"/><path fill="#6fc183" d="M1146.52,1722.2l323-155s42.32,39.69,63.07,116.28c10.51,38.77,10.51,106.79,10.51,106.79L1183.85,2065s-93.64-58.93-98.42-178.34S1146.52,1722.2,1146.52,1722.2Z"/><path fill="#f5b0a6" d="M1461.1,1081.35c26.14,51.76,117.13,129.63,117.13,129.63s119.78-81.14,124.27-124.8l-.45-15.84-2.28-60.74-3.4-128.41-196.9-36.41Z"/><path fill="#f5b0a6" d="M1443.83,816.47c12.25,81.66,84.27,155.89,153.59,184.93,66.34,27.87,144.46,5.83,167.6-22.89,21.41-26.7,27.76-65.18,25.65-107a419.38,419.38,0,0,0-9.07-66.68c-18.4-88-57.2-170.16-57.2-170.16C1616.88,489.1,1419.8,655.39,1443.83,816.47Z"/><path fill="#f18a8b" d="M1560.55,1003.32s73.33,82.4,141.11,68.53l-1.48-60.83C1611.08,1023.14,1560.55,1003.32,1560.55,1003.32Z"/><path fill="#d37a7f" d="M1726.14,901.82a2.05,2.05,0,0,1-1.32-.47,2.08,2.08,0,0,1-.29-2.93c10-12.27,25-34.16,22.49-40.63-1.37-3.5-14.63-6.56-39.83-2.37a2.1,2.1,0,0,1-2.17-1.06c-6.32-11.61-11.37-28.52-15-50.24-2.7-16.11-3.57-29-3.58-29.16a2.08,2.08,0,0,1,4.16-.27c0,.5,3.39,49.3,17.4,76.38,9.1-1.41,38.86-5.16,42.91,5.21,1.91,4.88-1.41,13.72-10.14,27-6.19,9.4-12.94,17.69-13,17.77A2.08,2.08,0,0,1,1726.14,901.82Z"/><path fill="#151515" d="M1647.22,826.38c2.62,7.23-.27,14.9-6.44,17.13s-13.29-1.83-15.9-9.06.27-14.91,6.44-17.14S1644.61,819.14,1647.22,826.38Z"/><path fill="#151515" d="M1764.18,802.7c2.61,7.24-.27,14.91-6.44,17.14s-13.29-1.83-15.91-9.06.27-14.91,6.44-17.14S1761.57,795.47,1764.18,802.7Z"/><path fill="#0d0d0d" d="M1601.25,793.06s19.84-22.5,45.6-33.07,5.11-25.8-12.82-23.1S1594.15,775.07,1601.25,793.06Z"/><path fill="#0d0d0d" d="M1767.52,760.29s-23.46-15-51-12.6-3.37-24.75,16.56-22.54C1758.82,728,1767.52,760.29,1767.52,760.29Z"/><path fill="#f18a8b" d="M1659.32,882.53c4.51,21.68-13.45,43.75-40.11,49.31s-52-7.52-56.46-29.19,13.44-43.75,40.11-49.31S1654.8,860.86,1659.32,882.53Z" opacity=".6"/><path fill="#f18a8b" d="M1767.36,857.35c4,10.44,12.86,18,24.08,21.46a419.38,419.38,0,0,0-9.07-66.68C1768,824,1761.38,841.76,1767.36,857.35Z" opacity=".6"/><path fill="#f5b0a6" d="M1511.68,837.39c-8.64-10.18-11.23-28-24.38-30.33-3.5-.62-20.39.13-29,19.83-6.43,14.64-8.92,31.16-4,46.38s15.16,28.34,27.48,38.54c5.85,4.84,12.53,9.21,20.08,10s16-3,18.43-10.21Z"/><path fill="#151515" d="M1747.66,941.71a33.83,33.83,0,0,1-3.48,5.16c-8.67,10.78-23.88,17.69-38.73,17A44.62,44.62,0,0,1,1687,959c-8.89-4.71-15.84-12.17-18.57-20.92-1.57-5-1.21-11.58,4-14.41a13.41,13.41,0,0,1,3.93-1.17,49.31,49.31,0,0,1,7.67.26,107.61,107.61,0,0,0,41.19-4.2,39.31,39.31,0,0,1,13.35-2.3c4,.17,7.36,1.43,9.48,4.45C1752.47,926.82,1751.21,935,1747.66,941.71Z"/><path fill="#fff" d="M1738.63,916.24c.2,3.5-.22,7-2.26,9.71-2.22,3-5.82,4.43-9.35,5.46a90.3,90.3,0,0,1-39.5,3.34c-3.14-.45-6.52-1.19-8.68-3.49s-2.55-5.56-2.42-8.78a49.31,49.31,0,0,1,7.67.26,107.61,107.61,0,0,0,41.19-4.2A39.31,39.31,0,0,1,1738.63,916.24Z"/><path fill="#d37a7f" d="M1744.18,946.87c-8.67,10.78-23.88,17.69-38.73,17A44.62,44.62,0,0,1,1687,959c4.45-7.11,12.83-11.77,21.21-14.05C1720.06,941.63,1733.11,941.94,1744.18,946.87Z"/><path fill="#0d0d0d" d="M1464.91,961.63c24.95-10.49,31.07-28.09,31.58-41.39-15.73-8.68-34.37-37.49-37.54-67.59-3.7-35.21,18.56-50.91,33.38-47.75,14.62,3.4,30.77,36.39,30.77,36.39l18.34-141.39s69.87,4.87,145.79,4.07c44.63-.48,120.17,1,120.17,1-26.3-207.15-194-193.07-298.47-151.89-118.75,46.83-103.44,133-103.44,133C1301.43,776.63,1464.91,961.63,1464.91,961.63Z"/><polygon fill="#3d5891" points="3950.07 2036.49 944.55 2036.49 732.65 2255.66 4161.97 2255.66 3950.07 2036.49"/><path fill="#5681bf" d="M4162,2255.65v24.18a1445.68,1445.68,0,0,1-224.38,138.45q-74.55,36.75-152,69.06c-9.61,4-22.23,10.08-36.33,16.68h3.95s-51,24.77-150,57.51c-192.81,63.78-567.76,157.81-1103.1,158.17-366.2.24-666.31-27.52-910.64-69.77q-111.48-19.28-207.75-42.21-15.37-3.61-30.37-7.31-32.22-7.93-62.74-16.16c-87.27-23.51-164.36-48.69-232.18-74.32a827.72,827.72,0,0,1-162.5-83.29,933.54,933.54,0,0,1-161.29-135.23v-35.76Z"/><rect width="3429.32" height="58.58" x="732.65" y="2255.66" fill="#2f4171"/><path fill="#99b1da" d="M3603.22,2561.53c-192.81,63.78-567.76,157.81-1103.1,158.17-366.2.24-666.31-27.52-910.64-69.77q-111.48-19.28-207.75-42.21-15.37-3.61-30.37-7.31-32.22-7.93-62.74-16.16c-87.27-23.51-164.36-48.69-232.18-74.32a827.72,827.72,0,0,1-162.5-83.29C1271.28,2425.15,2868.15,2436.46,3603.22,2561.53Z" opacity=".5"/><polygon fill="#292929" points="1534.77 2082.06 1846.86 2225.51 2504.62 2057.16 2227.24 1910.42 1534.77 2082.06"/><polygon fill="#3d5891" points="1539.29 2059.27 1851.38 2202.72 2509.14 2034.37 2231.76 1887.63 1539.29 2059.27"/><polygon fill="#d1dbed" points="1684.63 2074.75 1634.22 2055.11 1692.89 2039.94 1742.31 2058.2 1684.63 2074.75"/><polygon fill="#d1dbed" points="1741.23 2097.94 1690.82 2078.3 1749.5 2063.14 1798.92 2081.39 1741.23 2097.94"/><polygon fill="#d1dbed" points="1797.84 2121.13 1747.42 2101.49 1806.1 2086.33 1855.52 2104.59 1797.84 2121.13"/><polygon fill="#d1dbed" points="1755.63 2056.54 1705.22 2036.9 1763.9 2021.74 1813.32 2040 1755.63 2056.54"/><polygon fill="#d1dbed" points="1809.69 2079.74 1759.27 2060.1 1817.95 2044.93 1867.37 2063.19 1809.69 2079.74"/><polygon fill="#d1dbed" points="1866.29 2102.93 1815.88 2083.29 1874.56 2068.13 1923.97 2086.39 1866.29 2102.93"/><polygon fill="#d1dbed" points="1824.09 2038.34 1776.23 2018.7 1834.9 2003.54 1881.77 2021.8 1824.09 2038.34"/><polygon fill="#d1dbed" points="1880.69 2061.53 1830.28 2041.89 1888.96 2026.73 1938.38 2044.99 1880.69 2061.53"/><polygon fill="#9c9c9c" points="1937.3 2084.73 1886.88 2065.09 1945.56 2049.92 1994.98 2068.18 1937.3 2084.73"/><polygon fill="#d1dbed" points="1895.09 2020.14 1844.68 2000.5 1903.36 1985.34 1952.78 2003.6 1895.09 2020.14"/><polygon fill="#9c9c9c" points="1951.7 2043.33 1901.29 2023.69 1959.96 2008.53 2009.38 2026.79 1951.7 2043.33"/><polygon fill="#9c9c9c" points="2008.3 2066.52 1957.89 2046.88 2016.57 2031.72 2065.99 2049.98 2008.3 2066.52"/><path fill="#5681bf" d="M2672.3,1612.65c-3.71,7.87-94.74,244-139.19,359.46-14.45,37.5-24,62.26-24,62.26l-657.76,168.35L2021,1762.79l144.35-33.28Z"/><path fill="#505050" d="M1945,1959.83c-.88-.13-22.57,54.15-48.42,121.21s-46.11,121.56-45.22,121.68,22.56-54.14,48.43-121.23S1945.91,1960,1945,1959.83Z"/><path fill="#fff" d="M2247.2,1897.21c-11.18,18.07-7.47,37.29,8.3,42.92s37.61-4.46,48.79-22.53,7.47-37.3-8.29-42.93S2258.39,1879.13,2247.2,1897.21Z"/><path fill="#3d5891" d="M2533.11,1972.11c-14.45,37.5-24,62.26-24,62.26l-657.76,168.35L2021,1762.79l144.35-33.28c-23.79,54.12-92.53,224.63-33.6,265.86C2184.77,2032.5,2420.52,1993.5,2533.11,1972.11Z" opacity=".5"/><polygon fill="#243354" points="2509.14 2034.37 2504.62 2057.16 1846.86 2225.51 1851.38 2202.72 2509.14 2034.37"/><polygon fill="#243354" points="1539.29 2059.27 1534.77 2082.06 1846.86 2225.51 1851.38 2202.72 1539.29 2059.27"/><polygon fill="#99b1da" points="1836.71 2196.37 2007.39 1749.34 2020.99 1762.79 1851.38 2202.72 1836.71 2196.37"/><polygon fill="#99b1da" points="2672.3 1612.65 2655.7 1604.97 2007.39 1749.34 2020.99 1762.79 2672.3 1612.65"/><path fill="#2e6857" d="M1198.36,2064.53a597.39,597.39,0,0,1-19.29-176.18c1.48-36.89,8.41-77.3,39.73-101.7,18.46-14.38,44.35-21.14,68.5-17.37s46.08,18.32,56.3,38.09c10.3,20,8.57,43,6.35,64.8q-10.28,102.48-27.37,204.26Z"/><path fill="#275647" d="M1234.21,2062.1a2.11,2.11,0,0,1-2.06-1.72c-21.92-117.48-24-254.25,35.95-285.77a2.1,2.1,0,1,1,2,3.71c-25.92,13.63-42,50.7-46.52,107.21-3.82,47.78.71,109.6,12.74,174.08a2.1,2.1,0,0,1-1.68,2.45A2.58,2.58,0,0,1,1234.21,2062.1Z"/><path fill="#275647" d="M1279.8,2084.53l-.24,0a2.1,2.1,0,0,1-1.85-2.32c4.12-36,9.15-69.92,13.58-99.87,14.21-96,24.47-165.3-7.27-204.53a2.1,2.1,0,1,1,3.26-2.65c32.91,40.67,22.53,110.77,8.16,207.8-4.42,29.91-9.44,63.82-13.56,99.72A2.1,2.1,0,0,1,1279.8,2084.53Z"/><path fill="#67b277" d="M1305.6,2066.42a446,446,0,0,1,9.31-126c3.3-15.15,8.16-31.24,20.2-40.4,13.93-10.53,34.46-8.14,48.06,2.82s20.69,28.94,22.25,46.74-1.89,35.7-6.26,53a514,514,0,0,1-29.84,86.12Z"/><path fill="#275647" d="M1318.62,2071.77a2.1,2.1,0,0,1-2.1-2.1c0-59.5,5.28-161.11,40.66-173.2a2.1,2.1,0,1,1,1.36,4c-13.73,4.69-24,26-30.44,63.43-6.1,35.25-7.38,77-7.38,105.8A2.1,2.1,0,0,1,1318.62,2071.77Z"/><path fill="#275647" d="M1350.61,2083.93a2.22,2.22,0,0,1-.76-.14,2.11,2.11,0,0,1-1.2-2.72c13.14-34.13,23.93-73.09,28.85-104.23,6.11-38.68,3.43-64.26-7.75-74a2.1,2.1,0,0,1,2.76-3.17c27.76,24.12,3.28,122.59-19.94,182.88A2.12,2.12,0,0,1,1350.61,2083.93Z"/><path fill="#40947e" d="M1206,2057.51q-11.49-79.61-27.28-158.54c-1.24-6-2.47-12.16-5.94-17.12-5.85-8.48-16.9-11.56-27-11-22.18,1.28-42.54,18.83-47.89,41.18-3.8,15.75-.58,32.36,3.21,48.11A695.76,695.76,0,0,0,1138.92,2074Z"/><path fill="#275647" d="M1154,2070.49a2.11,2.11,0,0,1-2-1.37c-28.48-76.54-53.8-159.19-25.67-191.89a2.1,2.1,0,1,1,3.18,2.73c-12.3,14.31-14.49,41.61-6.51,81.14,7,34.78,20.59,73.38,32.94,106.55a2.12,2.12,0,0,1-2,2.84Z"/><path fill="#275647" d="M1190.2,2061.84a2.1,2.1,0,0,1-2-1.45c-6.4-19.6-10.07-45.6-14-73.13-7-49.4-14.18-100.48-37.83-111a2.1,2.1,0,0,1,1.71-3.83c25.77,11.49,33.15,63.74,40.28,114.28,3.85,27.33,7.5,53.15,13.78,72.41a2.1,2.1,0,0,1-1.34,2.65A2.14,2.14,0,0,1,1190.2,2061.84Z"/><path fill="#f19a6d" d="M1432.79,2032.86s-1.65,42.72-24.32,85.52l-.08.09c-22.92,43.14-67.26,86.29-152.83,85.6-179.12,0-177.22-171.21-177.22-171.21Z"/><path fill="#f3ce90" d="M1432.79,2032.86s-1.65,42.72-24.32,85.52l-.08.09c-26,17.12-65.2,29.19-124,28.67-129,0-166.26-73.28-177-114.28Z"/><circle cx="2540.74" cy="2355.45" r="220.21" fill="#f3ce90"/><path fill="#fff" d="M2702.84,2382.46c14.88-89.38-45.73-174.2-135.11-189.08s-174.21,45.72-189.09,135.1c-14.06,84.4,39.22,164.71,120.45,185.93a65.8,65.8,0,0,0,25.9,4.6C2610.14,2527.26,2688.58,2468.09,2702.84,2382.46Zm-60.12-17.53c3.52-25.85,3.12-51.23-1-74.45a241.19,241.19,0,0,0,27.08-11.95,148.77,148.77,0,0,1,20.44,94.15Zm-70.55-153.1c23.44,8,41.14,32.63,50.09,65.9q-31.76,9.26-62,5.82Zm-26.57,69.29a153.51,153.51,0,0,1-35.49-12.55,169.75,169.75,0,0,1-23.16-13.93c19.78-29.13,45.26-46.62,70.64-45.53Zm-44.33,3.48a170.47,170.47,0,0,0,41.34,14.47l-8,47.87-79.5-13.24a228,228,0,0,1,22.3-63.34A190.92,190.92,0,0,0,2501.27,2284.6Zm30.93,77-8,47.89a170.34,170.34,0,0,0-43.8.27,190.29,190.29,0,0,0-27.51,5.86,229.36,229.36,0,0,1-.25-67.26Zm-48.59,66.2a154.14,154.14,0,0,1,37.63-.39l-12.18,73.16c-24.6-7.26-43.17-32.48-52.35-67A170.58,170.58,0,0,1,2483.61,2427.77Zm52.27,2.06q29.92,6.6,57.18,25.89c-19.32,29.08-44.29,47-69.32,47Zm3-17.88,8-47.94,77.32,12.88a229.55,229.55,0,0,1-21.81,63.15C2580.51,2424.91,2559,2416.31,2538.85,2412Zm10.42-62.58,8-47.93c20.33,2.38,43.39,1.26,68.82-5.89a228.53,228.53,0,0,1,.5,66.69Zm88.37-76.85a170.89,170.89,0,0,0-5.94-17.7,131.13,131.13,0,0,0-15.39-28.29,149.73,149.73,0,0,1,42,36.79A225.77,225.77,0,0,1,2637.64,2272.52Zm-152.54-42.11a168.67,168.67,0,0,0-10.94,14.22,181.42,181.42,0,0,1-15-14.34,150,150,0,0,1,48-20.48A132.88,132.88,0,0,0,2485.1,2230.41Zm-20.74,30c-11.58,20.75-20.28,44.83-25.37,70.65l-44.31-7.38a148.75,148.75,0,0,1,49.73-82.34A195.29,195.29,0,0,0,2464.36,2260.36Zm-27.83,85.28c-3.67,26.1-3.35,51.75.77,75.2a198,198,0,0,0-24.7,11.44,148.81,148.81,0,0,1-20.36-94Zm4.84,93.3a168.68,168.68,0,0,0,6,17.95,134.59,134.59,0,0,0,12.71,24.44,149.89,149.89,0,0,1-37.08-33.85A183.64,183.64,0,0,1,2441.37,2438.94ZM2594,2481.3a169.33,169.33,0,0,0,11.93-15.64q8.25,6.95,16.22,15.1a149.46,149.46,0,0,1-49.78,20.78A132.77,132.77,0,0,0,2594,2481.3Zm21.5-31.36c11.36-20.73,19.87-44.71,24.81-70.37l46.5,7.74a148.84,148.84,0,0,1-49.87,82.46A239.54,239.54,0,0,0,2615.49,2449.94Z"/><circle cx="2705.08" cy="2224.61" r="92.68" fill="#f19a6d" transform="rotate(-45 2705.086 2224.617)"/><path fill="#fff" d="M2713,2266.6l-10.9-26.07-22.43,16.95-26.15-7.16,39.1-27-18.86-42,25.81,7.07,10.72,24.42,21.45-15.62,24.76,6.78-37.39,25.72,20.27,44.07Z"/><path fill="#5681bf" d="M4005.78,2195.29l-460-32.18a77.31,77.31,0,0,1-70.89-83.22l41.21-537.68a77.29,77.29,0,0,1,83.21-70.89l461.91,37a77.3,77.3,0,0,1,70.89,83.22L4089,2124.41A77.29,77.29,0,0,1,4005.78,2195.29Z"/><path fill="#99b1da" d="M4007.29,2176.35l-460-32.18a77.29,77.29,0,0,1-70.88-83.21l41.2-537.69a77.3,77.3,0,0,1,83.22-70.88l461.91,37a77.29,77.29,0,0,1,70.88,83.21l-43.12,532.9A77.29,77.29,0,0,1,4007.29,2176.35Z"/><rect width="99.91" height="121.34" x="3573.58" y="2012.25" fill="#2f4171" opacity=".3" rx="24.52" transform="rotate(-85.42 3623.747 2072.876)"/><rect width="99.91" height="121.34" x="3742.29" y="2025.75" fill="#2f4171" opacity=".3" rx="24.52" transform="matrix(.08 -1 1 .08 1409.93 5700.13)"/><rect width="99.91" height="121.34" x="3911" y="2039.26" fill="#2f4171" opacity=".3" rx="24.52" transform="rotate(-85.42 3961.182 2099.863)"/><rect width="99.91" height="121.34" x="3592.81" y="1777.97" fill="#2f4171" opacity=".3" rx="24.52" transform="rotate(-85.42 3642.97 1838.586)"/><rect width="99.91" height="121.34" x="3930.23" y="1804.98" fill="#2f4171" opacity=".3" rx="24.52" transform="rotate(-85.42 3980.405 1865.583)"/><rect width="99.91" height="121.34" x="3761.46" y="1791.93" fill="#2f4171" opacity=".3" rx="24.52" transform="rotate(-85.42 3811.633 1852.535)"/><path fill="#2f4171" d="M3665.44,2008.51l-72.07-5.77a24.52,24.52,0,0,1-22.49-26.4l4.06-50.7a24.52,24.52,0,0,1,26.4-22.49l72.07,5.77a24.52,24.52,0,0,1,22.48,26.4l-4,50.7A24.53,24.53,0,0,1,3665.44,2008.51Z" opacity=".3"/><rect width="99.91" height="121.34" x="3752.14" y="1908.66" fill="#2f4171" opacity=".3" rx="24.52" transform="rotate(-85.42 3802.32 1969.27)"/><rect width="99.91" height="121.34" x="3920.85" y="1922.16" fill="#2f4171" opacity=".3" rx="24.52" transform="rotate(-85.42 3971.028 1982.769)"/><rect width="99.91" height="121.34" x="3603.51" y="1662.21" fill="#2f4171" opacity=".3" rx="24.52" transform="rotate(-85.42 3653.667 1722.819)"/><path fill="#2f4171" d="M3854.22,1789.06l-72.07-5.77a24.51,24.51,0,0,1-22.48-26.4l4-50.7a24.51,24.51,0,0,1,26.4-22.48l72.07,5.76a24.52,24.52,0,0,1,22.49,26.4l-4.06,50.7A24.52,24.52,0,0,1,3854.22,1789.06Z" opacity=".3"/><rect width="99.91" height="121.34" x="3940.93" y="1689.21" fill="#2f4171" opacity=".3" rx="24.52" transform="rotate(-85.42 3991.107 1749.811)"/><path fill="#5681bf" d="M4032.83,1648.33l-427.74-34.23a24.52,24.52,0,0,1-22.48-26.4l5.1-63.78a24.52,24.52,0,0,1,26.4-22.49l427.73,34.24a24.52,24.52,0,0,1,22.49,26.4l-5.1,63.78A24.52,24.52,0,0,1,4032.83,1648.33Z"/><rect width="99.91" height="121.34" x="3564.27" y="2001.15" fill="#d1dbed" rx="24.52" transform="rotate(-85.42 3614.445 2061.771)"/><rect width="99.91" height="121.34" x="3732.98" y="2014.65" fill="#d1dbed" rx="24.52" transform="matrix(.08 -1 1 .08 1412.45 5680.65)"/><rect width="99.91" height="121.34" x="3901.69" y="2028.15" fill="#b5cae8" rx="24.52" transform="rotate(-85.42 3951.875 2088.764)"/><rect width="99.91" height="121.34" x="3583.5" y="1766.87" fill="#d1dbed" rx="24.52" transform="rotate(-85.42 3633.678 1827.48)"/><rect width="99.91" height="121.34" x="3752.21" y="1780.37" fill="#d1dbed" rx="24.52" transform="rotate(-85.42 3802.386 1840.98)"/><path fill="#d1dbed" d="M4002.93,1907.23l-72.07-5.77a24.52,24.52,0,0,1-22.49-26.4l4.06-50.7a24.52,24.52,0,0,1,26.4-22.49l72.07,5.77a24.52,24.52,0,0,1,22.48,26.4l-4.05,50.7A24.52,24.52,0,0,1,4002.93,1907.23Z"/><rect width="99.91" height="121.34" x="3574.13" y="1884.05" fill="#d1dbed" rx="24.52" transform="rotate(-85.42 3624.295 1944.672)"/><rect width="99.91" height="121.34" x="3742.83" y="1897.56" fill="#d1dbed" rx="24.52" transform="rotate(-85.42 3793.023 1958.16)"/><rect width="99.91" height="121.34" x="3911.54" y="1911.06" fill="#d1dbed" rx="24.52" transform="rotate(-85.42 3961.741 1971.658)"/><rect width="99.91" height="121.34" x="3564.96" y="1992.58" fill="#fff" rx="24.52" transform="rotate(-85.42 3615.135 2053.199)"/><path fill="#fff" d="M3815.67,2119.43l-72.07-5.77a24.52,24.52,0,0,1-22.49-26.4l4.06-50.7a24.52,24.52,0,0,1,26.4-22.49l72.07,5.77a24.52,24.52,0,0,1,22.49,26.4l-4.06,50.7A24.52,24.52,0,0,1,3815.67,2119.43Z"/><path fill="#d1dbed" d="M3984.38,2132.93l-72.07-5.77a24.52,24.52,0,0,1-22.49-26.4l4.06-50.7a24.52,24.52,0,0,1,26.4-22.49l72.07,5.77a24.52,24.52,0,0,1,22.49,26.4l-4.06,50.7A24.52,24.52,0,0,1,3984.38,2132.93Z"/><path fill="#fff" d="M3666.19,1871.65l-72.07-5.77a24.52,24.52,0,0,1-22.48-26.4l4.05-50.7a24.52,24.52,0,0,1,26.4-22.49l72.07,5.77a24.52,24.52,0,0,1,22.49,26.4l-4.06,50.7A24.52,24.52,0,0,1,3666.19,1871.65Z"/><path fill="#fff" d="M3834.9,1885.15l-72.07-5.77a24.51,24.51,0,0,1-22.48-26.4l4.05-50.7a24.51,24.51,0,0,1,26.4-22.48l72.07,5.76a24.52,24.52,0,0,1,22.49,26.4l-4.06,50.7A24.52,24.52,0,0,1,3834.9,1885.15Z"/><path fill="#fff" d="M4003.61,1898.66l-72.07-5.77a24.52,24.52,0,0,1-22.49-26.4l4.06-50.7a24.52,24.52,0,0,1,26.4-22.49l72.07,5.77a24.52,24.52,0,0,1,22.49,26.4l-4.06,50.7A24.52,24.52,0,0,1,4003.61,1898.66Z"/><path fill="#fff" d="M3656.81,1988.83l-72.06-5.77a24.52,24.52,0,0,1-22.49-26.4l4.06-50.7a24.52,24.52,0,0,1,26.4-22.49l72.06,5.77a24.52,24.52,0,0,1,22.49,26.4l-4.05,50.7A24.54,24.54,0,0,1,3656.81,1988.83Z"/><rect width="99.91" height="121.34" x="3743.52" y="1888.98" fill="#fff" rx="24.52" transform="rotate(-85.42 3793.703 1949.587)"/><rect width="99.91" height="121.34" x="3912.23" y="1902.49" fill="#fff" rx="24.52" transform="rotate(-85.42 3962.416 1963.092)"/><path fill="#2f4171" d="M4033.9,1632.59l-427.74-34.24a24.52,24.52,0,0,1-22.48-26.4l5.1-63.78a24.51,24.51,0,0,1,26.4-22.48l427.73,34.23a24.52,24.52,0,0,1,22.49,26.4l-5.1,63.78A24.52,24.52,0,0,1,4033.9,1632.59Z"/><path fill="#3d5891" d="M4033.41,1641l-427.73-34.24a24.52,24.52,0,0,1-22.49-26.4l5.11-63.78a24.52,24.52,0,0,1,26.4-22.48l427.73,34.23a24.52,24.52,0,0,1,22.49,26.4l-5.11,63.78A24.52,24.52,0,0,1,4033.41,1641Z"/><g mask="url(#c)" opacity=".5"><path fill="#fff" d="M3904.28,1517.3l-288.08-23c-14.33-1.15-26.82,8.86-27.9,22.36l-5.11,63.78c-1.08,13.5,9.66,25.38,24,26.52l168.46,13.49Z"/></g><rect width="99.91" height="121.34" x="3594.2" y="1651.11" fill="#d1dbed" rx="24.52" transform="rotate(-85.42 3644.365 1711.714)"/><path fill="#d1dbed" d="M3844.92,1778l-72.07-5.77a24.52,24.52,0,0,1-22.49-26.4l4.06-50.7a24.52,24.52,0,0,1,26.4-22.49l72.07,5.77a24.51,24.51,0,0,1,22.48,26.4l-4,50.7A24.52,24.52,0,0,1,3844.92,1778Z"/><rect width="99.91" height="121.34" x="3931.62" y="1678.11" fill="#d1dbed" rx="24.52" transform="matrix(.08 -1 1 .08 1930.68 5568.95)"/><rect width="99.91" height="121.34" x="3594.89" y="1642.53" fill="#fff" rx="24.52" transform="rotate(-85.42 3645.044 1703.142)"/><rect width="99.91" height="121.34" x="3763.6" y="1656.04" fill="#fff" rx="24.52" transform="matrix(.08 -1 1 .08 1798.08 5381.15)"/><rect width="99.91" height="121.34" x="3932.31" y="1669.54" fill="#fff" rx="24.52" transform="rotate(-85.42 3982.485 1730.135)"/><path fill="#99b1da" d="M1855,812.69V524.11a51,51,0,0,1,51-51h325.43a51,51,0,0,1,51,51V812.69a51,51,0,0,1-51,51H2003.84c-17.82,29.54-55.89,66.72-137.35,89.2,0,0,43-40.21,60.91-89.2H1906A51,51,0,0,1,1855,812.69Z"/><path fill="#fff" d="M1922.68,552.48h-21.43V541.55h30l9.57,38.57,264.72.25-46.17,167.19H1971.11Zm268.49,38.8L1943.51,591l36.14,145.59H2151Z"/><polygon fill="#fff" points="2132.87 780.66 2142.94 776.42 2126.11 736.4 1997.99 736.4 1984.1 776.77 1994.43 780.32 2005.79 747.33 2118.85 747.33 2132.87 780.66"/><rect width="240.41" height="10.93" x="1946.02" y="618.36" fill="#fff"/><rect width="10.93" height="217.46" x="2062.21" y="556.07" fill="#fff" transform="rotate(-89.75 2067.613 664.828)"/><rect width="197.04" height="10.93" x="1967.91" y="701.29" fill="#fff"/><rect width="10.93" height="155.56" x="2058.39" y="586.53" fill="#fff"/><rect width="156.06" height="10.92" x="2022.02" y="658.85" fill="#fff" transform="rotate(-85.42 2099.938 664.368)"/><rect width="158.17" height="10.93" x="2059.88" y="658.85" fill="#fff" transform="rotate(-79.58 2138.942 664.324)"/><rect width="10.92" height="156.06" x="2022.87" y="586.28" fill="#fff" transform="rotate(-4.6 2026.24 663.684)"/><rect width="10.93" height="158.17" x="1983.96" y="585.23" fill="#fff" transform="rotate(-10.41 1989.23 664.3)"/><path fill="#fff" d="M2114.37,778.54a23.54,23.54,0,1,1,23.53,23.54A23.56,23.56,0,0,1,2114.37,778.54Zm10.92,0a12.61,12.61,0,1,0,12.61-12.61A12.63,12.63,0,0,0,2125.29,778.54Z"/><path fill="#fff" d="M1966.25,778.54a23.54,23.54,0,1,1,23.54,23.54A23.56,23.56,0,0,1,1966.25,778.54Zm10.93,0a12.61,12.61,0,1,0,12.61-12.61A12.63,12.63,0,0,0,1977.18,778.54Z"/><path fill="#e8926b" d="M3118.29,2021.43a233,233,0,0,0,5.13,35.1q2.45,10.95,5.92,21.48a231.5,231.5,0,0,0,14.57,34.73,234.8,234.8,0,0,0,206.31,127.11c129.81,1.4,236.17-102.7,237.57-232.5s-102.7-236.17-232.5-237.56a235.33,235.33,0,0,0-205.18,115.88A234.9,234.9,0,0,0,3126.2,1942q-2.76,10-4.65,20.34a234.87,234.87,0,0,0-3.73,35.44c0,1.49-.07,3-.09,4.49Q3117.63,2012,3118.29,2021.43Z"/><circle cx="3394.54" cy="2004.82" r="235.04" fill="#f3ce90" transform="rotate(-45 3394.542 2004.815)"/><path fill="#f19a6d" d="M3196.28,2002.68c-5.28-108,89.75-194.81,197.86-193.65s194.82,89.76,193.65,197.87-89.75,194.38-197.86,193.65C3282,2199.83,3202.57,2131.48,3196.28,2002.68Z"/><g opacity=".5"><path fill="#ef7c59" d="M3197.45,1828.4l43.72-1.69a235.21,235.21,0,0,1,59.87-37.59l-45.75,1.75A235.52,235.52,0,0,0,3197.45,1828.4Z"/><path fill="#ef7c59" d="M3150.11,1885.67l42.76-1.65a235.87,235.87,0,0,1,26.87-36.34l-43.27,1.67A235.7,235.7,0,0,0,3150.11,1885.67Z"/><path fill="#ef7c59" d="M3126.2,1942l42.24-1.62a232,232,0,0,1,13.44-35.81l-42.54,1.64A231.42,231.42,0,0,0,3126.2,1942Z"/><path fill="#ef7c59" d="M3117.82,1997.8l41.84-1.61a235.92,235.92,0,0,1,4-35.45l-42.08,1.62A234.87,234.87,0,0,0,3117.82,1997.8Z"/><path fill="#ef7c59" d="M3118.29,2021.43a233,233,0,0,0,5.13,35.1l41.43-1.59a234.23,234.23,0,0,1-4.88-35.11Z"/><path fill="#ef7c59" d="M3129.34,2078a231.5,231.5,0,0,0,14.57,34.73l41-1.57a233.88,233.88,0,0,1-14.27-34.75Z"/><path fill="#ef7c59" d="M3156.88,2134.78a236.22,236.22,0,0,0,27.68,34.22l40.29-1.55a235,235,0,0,1-27.22-34.24Z"/><path fill="#ef7c59" d="M3211.64,2192.8a233.7,233.7,0,0,0,60.78,33l37.86-1.45a234.18,234.18,0,0,1-58.86-33Z"/></g><path fill="#ef7c59" d="M3376.44,2144.85v-34.22c-24.15-1.08-47.57-7.57-61.28-15.49L3326,2053c15.14,8.28,36.39,15.85,59.84,15.85,20.54,0,34.6-7.92,34.6-22.33,0-13.71-11.53-22.37-38.21-31.38-38.56-13-64.89-31-64.89-65.95,0-31.72,22.37-56.58,60.93-64.15v-34.25h35.3v31.72c24.15,1.09,40.38,6.14,52.27,11.89l-10.45,40.74c-9.36-4-25.94-12.27-51.91-12.27-23.42,0-31,10.09-31,20.19,0,11.89,12.61,19.46,43.25,31,42.88,15.15,60.19,35,60.19,67.42,0,32.08-22.71,59.46-64.15,66.68v36.74Z"/><path fill="#fff" d="M3361.76,2144.85v-34.22c-24.16-1.08-47.57-7.57-61.28-15.49l10.83-42.18c15.14,8.28,36.39,15.85,59.84,15.85,20.54,0,34.6-7.92,34.6-22.33,0-13.71-11.54-22.37-38.21-31.38-38.56-13-64.89-31-64.89-65.95,0-31.72,22.36-56.58,60.93-64.15v-34.25h35.3v31.72c24.15,1.09,40.38,6.14,52.27,11.89l-10.45,40.74c-9.36-4-25.94-12.27-51.91-12.27-23.42,0-31,10.09-31,20.19,0,11.89,12.61,19.46,43.25,31,42.88,15.15,60.19,35,60.19,67.42,0,32.08-22.71,59.46-64.15,66.68v36.74Z"/></g></svg>